<svg width="53" height="52" viewBox="0 0 53 52" fill="none" xmlns="http://www.w3.org/2000/svg">
<path fill-rule="evenodd" clip-rule="evenodd" d="M19.5 6C26.9558 6 33 12.0442 33 19.5C33 26.9558 26.9558 33 19.5 33C12.0442 33 6 26.9558 6 19.5C6 12.0442 12.0442 6 19.5 6ZM19.5 0C30.2696 0 39 8.73045 39 19.5C39 23.0887 38.0306 26.451 36.3393 29.3393L50.818 43.818C52.5753 45.5754 52.5753 48.4246 50.818 50.182C49.0606 51.9393 46.2114 51.9393 44.454 50.182L30.1255 35.8535C27.0688 37.8437 23.4194 39 19.5 39C8.73045 39 0 30.2696 0 19.5C0 8.73045 8.73045 0 19.5 0Z" fill="#463F97"/>
</svg>
